<svg xmlns="http://www.w3.org/2000/svg" width="168.488" height="180.916" viewBox="0 0 168.488 180.916">
  <path id="Logo" d="M82.248,179.282C77.041,168.619,53.607,152.4,17.955,134.8A30.91,30.91,0,0,1,1.293,101.424,246.073,246.073,0,0,1,19.057,46.614L11,31.771a13.675,13.675,0,0,1,14.842-19.9,48.878,48.878,0,0,1,9.9,3.155A34.474,34.474,0,0,1,74.749,1.747L85,5.058,95.251,1.747A34.474,34.474,0,0,1,134.26,15.025a48.91,48.91,0,0,1,9.9-3.155A13.675,13.675,0,0,1,159,31.771l-8.06,14.843a246.068,246.068,0,0,1,17.764,54.811A30.911,30.911,0,0,1,152.045,134.8C116.394,152.4,92.96,168.619,87.752,179.281a3.063,3.063,0,0,1-5.5,0ZM54.1,8.045a28.512,28.512,0,0,0-14.37,12.1C28.47,39.167,13.709,68.91,7.311,102.568A24.766,24.766,0,0,0,20.668,129.3C44.645,141.146,74.1,157.712,85,172.193c10.9-14.481,40.355-31.046,64.333-42.889a24.768,24.768,0,0,0,13.357-26.736c-6.4-33.658-21.159-63.4-32.415-82.425A28.372,28.372,0,0,0,97.133,7.575L85.941,11.19a3.066,3.066,0,0,1-1.883,0L72.866,7.575A28.45,28.45,0,0,0,54.1,8.045Zm-37.138,12.7a7.372,7.372,0,0,0-.578,8.1l5.9,10.869c3.472-7.183,6.974-13.7,10.255-19.4a43.766,43.766,0,0,0-7.956-2.448,7.98,7.98,0,0,0-1.642-.173A7.371,7.371,0,0,0,16.957,20.748Zm128.462-2.884a43.8,43.8,0,0,0-7.955,2.447c3.28,5.705,6.783,12.222,10.255,19.4l5.9-10.868a7.561,7.561,0,0,0-6.56-11.157A7.991,7.991,0,0,0,145.419,17.865ZM81.867,136.1a18.222,18.222,0,0,1-18.144-16.8A30.817,30.817,0,0,1,54.7,91.259l.43-2.243L49.491,92.35a3.061,3.061,0,0,1-3.431-.213,21.467,21.467,0,0,1-6.5-25.8l7.148-16.021a14.075,14.075,0,0,1,24.44-2.256L73.3,51.18a9.6,9.6,0,0,0,7.9,4.15H90.88a9.6,9.6,0,0,0,7.9-4.15l2.152-3.12a14.075,14.075,0,0,1,24.44,2.256l7.147,16.02a21.465,21.465,0,0,1-6.5,25.8,3.063,3.063,0,0,1-3.431.213l-5.642-3.334.43,2.243a30.818,30.818,0,0,1-9.019,28.047A18.224,18.224,0,0,1,90.22,136.1ZM69.895,119.46a12.092,12.092,0,0,0,11.973,10.519h8.353a12.093,12.093,0,0,0,11.974-10.519l-16.15-10.911Zm22.468-32.1a6.572,6.572,0,0,1,4.55,11.316l-6.01,5.763,14.129,9.546a24.682,24.682,0,0,0,6.337-21.573L109.662,83.5a3.063,3.063,0,0,1,4.566-3.212l9.576,5.658a15.357,15.357,0,0,0,3.127-17.118l-7.148-16.02a7.949,7.949,0,0,0-13.8-1.274l-2.152,3.119a15.726,15.726,0,0,1-12.945,6.8H81.209a15.725,15.725,0,0,1-12.945-6.8l-2.152-3.12a7.95,7.95,0,0,0-13.8,1.274L45.16,68.831a15.353,15.353,0,0,0,3.125,17.117l9.576-5.658A3.063,3.063,0,0,1,62.428,83.5L60.722,92.41a24.682,24.682,0,0,0,6.337,21.573l14.129-9.546-6.01-5.763a6.572,6.572,0,0,1,4.55-11.316ZM79.312,93.765a.4.4,0,0,0,.105.49l6.627,6.355,6.628-6.356a.447.447,0,0,0-.31-.77H79.726A.4.4,0,0,0,79.312,93.765ZM100.986,74.23a3.063,3.063,0,0,1,1.587-4.03l5.212-2.266a3.062,3.062,0,1,1,2.442,5.617l-5.212,2.266a3.06,3.06,0,0,1-4.03-1.587ZM66.029,75.817l-5.212-2.266a3.063,3.063,0,1,1,2.442-5.617L68.471,70.2a3.063,3.063,0,1,1-2.442,5.617Z" transform="translate(-0.756 -0.084)" fill="#f5f5f5"/>
</svg>
